<svg viewBox="0 0 151 42" version="1.1" xmlns="http://www.w3.org/2000/svg" desc="Created with imagetracer-ts 1.0.2" >
 <path fill="rgb(0,1,1)" stroke="rgb(0,1,1)" stroke-width="1" d="M 70.5 17 L 71 21.5 L 70 21.5 L 70.5 17 Z" />
 <path fill="rgb(0,1,1)" stroke="rgb(0,1,1)" stroke-width="1" d="M 138.5 19 L 139 24.5 L 138 24.5 L 137 22.5 L 138.5 19 Z" />
 <path fill="rgb(0,1,1)" stroke="rgb(0,1,1)" stroke-width="1" d="M 102.5 21 L 103 23 L 101 22.5 L 102.5 21 Z" />
 <path fill="rgb(0,1,1)" stroke="rgb(0,1,1)" stroke-width="1" d="M 144.5 21 L 145.5 23 L 147 22.5 L 146.5 28 L 145.5 24 L 144 24.5 L 144 22.5 L 144.5 21 Z" />
 <path fill="rgb(0,1,1)" stroke="rgb(0,1,1)" stroke-width="1" d="M 114 22 L 116 22.5 L 114.5 27 L 114 22 Z" />
 <path fill="rgb(0,1,1)" stroke="rgb(0,1,1)" stroke-width="1" d="M 142.5 22 L 143 26.5 L 142 26.5 L 142.5 22 Z" />
 <path fill="rgb(0,1,1)" stroke="rgb(0,1,1)" stroke-width="1" d="M 102.5 24 L 103 26.5 L 102 26.5 L 102.5 24 Z" />
 <path fill="rgb(0,1,1)" stroke="rgb(0,1,1)" stroke-width="1" d="M 119.5 25 L 120.5 27 L 119.5 25 Z" />
 <path fill="rgb(0,1,1)" stroke="rgb(0,1,1)" stroke-width="1" d="M 75.5 27 L 76 29.5 L 75 29.5 L 75.5 27 Z" />
 <path fill="rgb(0,1,1)" stroke="rgb(0,1,1)" stroke-width="1" d="M 144.5 27 L 145 29.5 L 144 29.5 L 144.5 27 Z" />
 <path fill="rgb(3,3,3)" stroke="rgb(3,3,3)" stroke-width="1" d="M 0.5 0 Q 2.8 -0.8 2 1.5 L 3 1.5 Q 2.2 -1.1 5.5 0 L 7.5 0 L 13 1.5 L 12.5 3 L 15.5 4 L 15 2.5 L 14 0.5 L 20.5 0 L 22.5 0 L 24.5 1 L 26.5 0 L 29 1.5 L 29.5 0 L 31.5 1 L 35 0 Q 33.9 2.7 36.5 2 L 38 1.5 L 37.5 4 L 35 4.5 L 35.5 6 Q 33.3 6.8 34 4.5 L 32 4.5 L 33 1.5 L 31.5 2 L 30 2.5 L 30 4.5 L 31 6.5 Q 28.7 7.8 31.5 9 L 32 7 L 38 9.5 L 36 10.5 Q 37.4 13.1 42 12.5 L 38.5 14 L 37 13.5 L 35 17.5 L 35 25.5 L 35 27.5 Q 33.2 33.2 39.5 31 L 42.5 30 L 44.5 31 L 46.5 30 Q 47.8 32.3 49 29.5 L 51.5 26 L 53.5 31 L 56 31 Q 54.9 28.3 57.5 29 L 57 25.5 Q 55 18.6 59 20 L 59 26.5 L 58 27.5 L 60.5 31 Q 63.8 32.1 63 29.5 L 65 26.5 L 64 24.5 L 65.5 21 L 66 29.5 L 67.5 31 L 69.5 30 L 70.5 32 L 76 30 L 76.5 33 L 77.5 30 L 81.5 31 Q 84.4 29.4 83.5 24 Q 82.6 29.4 85.5 31 L 87.5 31 L 89.5 32 L 93 31 L 94.5 24 L 95 26 L 98 27.5 Q 95.3 29.3 99.5 31 L 104.5 29 L 104.5 31 L 107.5 30 L 110.5 31 L 115 27.5 L 116 29.5 L 115.5 31 L 117.5 30 L 119.5 30 L 128.5 31 L 128.5 30 L 126 28.5 L 127.5 28 Q 129.3 31.2 134.5 31 L 137 30.5 Q 135.9 27.2 138.5 28 L 138 29.5 L 138 31 L 142 31 L 143.5 24 L 144 28.5 L 143 31 L 146.5 32 L 150.5 30 L 151 36.5 L 151 38.5 L 150.5 42 L 127.5 42 L 125.5 42 L 98.5 42 L 97.5 41 L 96.5 42 L 2.5 42 L 0 41.5 L 0.5 21 L 4.5 31 Q 9.2 35.8 18.5 36 Q 20 32.5 21.5 35 L 26.5 30 Q 28.8 30.8 28 28.5 L 32 20.5 L 28 12.5 L 31 11.5 L 28 11 L 27.5 9 L 26.5 11 L 24 7.5 L 25 7.5 L 25.5 9 L 29 6.5 L 28.5 4 L 27.5 6 L 25 5.5 L 24.5 4 L 23 8 L 21 7.5 L 21.5 6 L 18.5 7 L 14.5 5 L 7.5 9 L 4.5 4 L 2.5 5 L 0 4 L 1 1.5 L 0.5 0 Z M 18.5 1 L 18.5 6 L 22.5 5 L 22.5 4 Q 19.9 4.8 21 1.5 L 18.5 1 Z M 8.5 3 L 7 6 L 10 4.5 Q 10.8 2.3 8.5 3 Z M 133.5 37 L 133.5 38 L 136 37.5 L 133.5 37 Z M 70.5 39 L 71.5 40 L 73 40.5 Q 73.8 37.9 70.5 39 Z M 121.5 39 L 121.5 40 L 124 39.5 L 121.5 39 Z" />
 <path fill="rgb(3,3,3)" stroke="rgb(3,3,3)" stroke-width="1" d="M 40.5 0 L 44 1.5 L 44 3 L 41 3 Q 42.5 6.7 39.5 6 L 37 7.5 L 37.5 5 L 40 3.5 L 39 1.5 L 40.5 0 Z" />
 <path fill="rgb(3,3,3)" stroke="rgb(3,3,3)" stroke-width="1" d="M 47.5 0 L 49.5 0 L 54 1.5 L 51.5 3 Q 50.3 0.7 49 3.5 L 50 5.5 L 48 9.5 L 49.5 12 Q 54.3 13.2 55.5 11 L 58.5 12 L 61 10.5 L 60.5 9 L 63.5 10 L 65 8.5 L 64.5 7 L 61.5 8 L 55.5 10 L 56 8.5 Q 56.9 5.5 52.5 7 L 51 7.5 Q 52.4 4.8 57 6 L 56 3.5 L 56.5 2 Q 53.9 2.7 55 0 L 57.5 1 L 62.5 0 L 64.5 0 L 68.5 1 L 70.5 1 L 72 1.5 L 69 2 Q 67.9 4.7 70.5 4 L 73 3 L 73.5 0 Q 75 3.5 76.5 1 L 80.5 0 L 81.5 2 L 80 2.5 L 82.5 5 L 84.5 3 Q 86.3 6.7 88 3.5 L 86.5 1 L 88.5 0 L 88.5 2 L 91 1.5 L 90.5 0 L 95.5 1 L 98.5 0 Q 103.8 -1.3 105 1.5 L 103.5 1 L 102 1.5 L 103 4 Q 100 2.8 101 6.5 L 103.5 7 Q 105.8 6.3 105 8.5 L 107.5 12 Q 112 13 113 10.5 L 111 7.5 L 115 6.5 L 114.5 8 L 117 6.5 L 116.5 4 L 112.5 5 L 113 3.5 L 114.5 0 L 114 1.5 L 114.5 3 L 119 2 Q 119.6 6.6 116 8.5 L 117.5 11 L 115.5 10 L 115 12 L 121.5 11 L 124 12 L 125 6.5 L 124.5 5 L 126 5.5 L 127 3.5 L 126 1 L 129.5 0 L 131.5 0 L 133.5 1 L 135 0.5 L 135.5 2 L 137 1.5 L 136 3.5 L 136.5 6 Q 137.9 3.4 142.5 4 L 144 4.5 L 144.5 2 L 149 3 L 150 7.5 L 146 9 L 146.5 11 L 148.5 11 L 151 12.5 Q 152.3 18.6 149.5 18 L 146.5 16 L 142 17.5 L 144 15.5 Q 140.5 14 143 12.5 L 146 8.5 L 144.5 8 L 139.5 11 L 138.5 8 L 137 11.5 L 139 12 L 138 15.5 L 138 17.5 L 137.5 19 L 136.5 16 L 132.5 17 L 130.5 16 L 125.5 18 Q 124 14.5 122.5 17 L 120.5 16 L 116 16.5 L 114.5 19 L 109.5 16 L 104 17 L 103.5 19 L 101 14.5 L 101.5 13 L 96 12.5 L 100 10.5 L 99 7 L 97 7.5 L 97.5 9 L 94 7.5 L 96 6.5 L 93 6 L 94 9.5 L 92 10.5 L 95 12.5 L 88.5 13 L 86.5 9 L 85 9.5 L 86 12 Q 82.3 10.7 84 16.5 L 82 17.5 L 81.5 16 L 77.5 17 L 75.5 17 L 72.5 16 L 69.5 18 Q 67.8 14.9 66 16.5 Q 66.8 14.3 64.5 15 L 63 14.5 Q 62.3 16.8 64.5 16 L 64.5 17 L 62.5 18 L 57 15.5 L 56.5 14 L 56 16 L 51 16 L 51 14.5 L 48.5 14 L 46 12.5 L 48 11.5 L 44.5 9 L 42.5 10 L 42.5 9 Q 45.1 9.7 44 7 L 40.5 8 L 40.5 7 Q 43.5 7.7 42 4 L 44.5 4 L 47.5 0 Z M 96.5 1 L 95 2.5 L 96.5 6 L 98 5.5 L 96.5 1 Z M 60.5 2 L 61.5 4 L 64 3.5 Q 64.9 0.5 60.5 2 Z M 74.5 2 L 74 4 L 71 5.5 L 73 8.5 L 78.5 12 L 80.5 12 L 81 9.5 L 78 8.5 L 78.5 7 L 79.5 9 L 80 6.5 L 76.5 5 L 76 6.5 Q 78.3 7.8 75.5 9 L 74 5.5 L 77 3.5 L 74.5 2 Z M 128 2 L 127 5.5 L 126.5 7 L 130 6 L 131 2.5 L 128 2 Z M 46.5 3 L 48 4.5 Q 48.8 2.3 46.5 3 Z M 45.5 4 Q 43.8 7.8 46.5 9 L 49 7.5 L 47 7 L 45.5 4 Z M 62.5 4 L 62 5.5 L 64 6.5 L 62.5 4 Z M 65 4 L 65.5 7 L 67 4.5 L 65 4 Z M 92.5 4 L 91 5.5 L 93 6 L 92.5 4 Z M 98.5 4 L 100 5.5 Q 100.8 3.3 98.5 4 Z M 131.5 4 L 130 6.5 L 132 7 L 131.5 4 Z M 139.5 5 L 140.5 6 L 142 6.5 Q 142.8 3.9 139.5 5 Z M 57 6 L 57 8 L 60 6.5 L 57 6 Z M 67.5 6 L 66 9.5 Q 64.9 12.8 67.5 12 Q 65.9 10.3 69 8.5 L 67.5 6 Z M 69 6 L 69 7.5 L 71 6.5 L 69 6 Z M 84.5 6 L 87 8 Q 88.3 5 84.5 6 Z M 146.5 6 L 148 7.5 Q 148.8 5.3 146.5 6 Z M 91.5 7 L 89.5 8 L 90 9.5 L 89 11.5 L 91.5 12 L 92 9.5 L 91.5 7 Z M 134 8 L 134 9.5 L 136 8.5 L 134 8 Z M 72.5 9 L 72 12 L 76 11.5 L 72.5 9 Z M 70.5 10 L 69 11.5 L 71 12 L 70.5 10 Z M 104.5 10 Q 102.7 12.7 105.5 12 L 104.5 10 Z M 125 10 Q 124 13 127 12 Q 128 9 125 10 Z M 120.5 13 L 122 14.5 Q 122.8 12.3 120.5 13 Z" />
 <path fill="rgb(3,3,3)" stroke="rgb(3,3,3)" stroke-width="1" d="M 109.5 0 L 110 2.5 L 109.5 5 L 107.5 5 L 106 5.5 L 109 7.5 L 108.5 10 L 108 8 Q 105.3 9.1 106 6.5 L 104 3 L 108 2.5 L 107.5 1 L 109 1.5 L 109.5 0 Z" />
 <path fill="rgb(3,3,3)" stroke="rgb(3,3,3)" stroke-width="1" d="M 121.5 0 L 122 1.5 L 121 2.5 L 122.5 5 Q 120.3 5.8 121 3.5 L 120 1.5 L 121.5 0 Z" />
 <path fill="rgb(3,3,3)" stroke="rgb(3,3,3)" stroke-width="1" d="M 124.5 0 L 123.5 2 L 124.5 0 Z" />
 <path fill="rgb(3,3,3)" stroke="rgb(3,3,3)" stroke-width="1" d="M 146.5 0 L 147.5 2 L 146.5 0 Z" />
 <path fill="rgb(3,3,3)" stroke="rgb(3,3,3)" stroke-width="1" d="M 53.5 3 L 54.5 5 L 53.5 3 Z" />
 <path fill="rgb(3,3,3)" stroke="rgb(3,3,3)" stroke-width="1" d="M 0 6 L 3 6.5 L 2 9.5 L 6 9.5 L 2 13.5 Q 2.8 18.3 0.5 20 L 0 16.5 L 0 14.5 L 1 10.5 L 0 7.5 L 0 6 Z" />
 <path fill="rgb(3,3,3)" stroke="rgb(3,3,3)" stroke-width="1" d="M 121.5 7 Q 124.5 8.5 121.5 10 L 121.5 7 Z" />
 <path fill="rgb(3,3,3)" stroke="rgb(3,3,3)" stroke-width="1" d="M 40.5 9 L 39.5 11 L 40.5 9 Z" />
 <path fill="rgb(3,3,3)" stroke="rgb(3,3,3)" stroke-width="1" d="M 53.5 9 L 54 11 L 52 10.5 L 53.5 9 Z" />
 <path fill="rgb(3,3,3)" stroke="rgb(3,3,3)" stroke-width="1" d="M 13 13 L 17.5 14 L 19.5 14 L 23 16.5 L 24 20.5 L 20.5 27 L 16 27.5 L 16.5 29 Q 15 25.5 13.5 28 L 11 26.5 L 11.5 25 Q 8.2 26.1 9 23.5 L 8 18.5 L 11 16.5 Q 8.7 15.3 11.5 14 L 13 14.5 L 13 13 Z" />
 <path fill="rgb(3,3,3)" stroke="rgb(3,3,3)" stroke-width="1" d="M 89.5 14 L 90 30 L 88 29.5 L 89 28.5 L 89 18.5 L 87.5 16 Q 90 16.7 89.5 14 Z" />
 <path fill="rgb(3,3,3)" stroke="rgb(3,3,3)" stroke-width="1" d="M 94 16 L 98 17.5 L 96 18 Q 97 21 94 20 L 94 16 Z" />
 <path fill="rgb(3,3,3)" stroke="rgb(3,3,3)" stroke-width="1" d="M 43.5 17 Q 46.8 15.9 46 18.5 L 45.5 20 Q 48.9 19.1 47 24.5 L 44.5 26 L 42.5 26 L 40 23.5 L 40 21.5 Q 38.3 16.7 42.5 18 L 43.5 17 Z" />
 <path fill="rgb(3,3,3)" stroke="rgb(3,3,3)" stroke-width="1" d="M 83.5 19 L 84 22.5 L 83 22.5 L 83.5 19 Z" />
 <path fill="rgb(3,3,3)" stroke="rgb(3,3,3)" stroke-width="1" d="M 77.5 20 L 78 22.5 L 79 24.5 L 79 26.5 L 77.5 29 Q 74.9 29.8 76 26.5 L 75 23 L 77 22.5 Q 74.8 21.3 77.5 20 Z" />
 <path fill="rgb(3,3,3)" stroke="rgb(3,3,3)" stroke-width="1" d="M 108.5 20 L 109 22 L 107 21.5 L 108.5 20 Z" />
 <path fill="rgb(3,3,3)" stroke="rgb(3,3,3)" stroke-width="1" d="M 114.5 20 Q 116.8 19.3 116 21.5 L 114.5 20 Z" />
 <path fill="rgb(3,3,3)" stroke="rgb(3,3,3)" stroke-width="1" d="M 132.5 20 L 138 23.5 L 136.5 24 L 135 23.5 L 133.5 26 L 131 24.5 L 133 24.5 L 131 21.5 L 132.5 20 Z" />
 <path fill="rgb(3,3,3)" stroke="rgb(3,3,3)" stroke-width="1" d="M 70.5 23 L 71 27.5 L 70 27.5 L 70.5 23 Z" />
 <path fill="rgb(3,3,3)" stroke="rgb(3,3,3)" stroke-width="1" d="M 101.5 23 L 102 25.5 L 100 24.5 L 101.5 23 Z" />
 <path fill="rgb(3,3,3)" stroke="rgb(3,3,3)" stroke-width="1" d="M 145.5 24 L 147 28.5 L 145 29.5 L 145 27.5 L 145.5 24 Z" />
 <path fill="rgb(3,3,3)" stroke="rgb(3,3,3)" stroke-width="1" d="M 120.5 25 L 122 25.5 L 119.5 27 L 120.5 25 Z" />
 <path fill="rgb(8,7,10)" stroke="rgb(8,7,10)" stroke-width="1" d="M 24.5 9 L 25.5 11 L 24.5 9 Z" />
 <path fill="rgb(8,7,10)" stroke="rgb(8,7,10)" stroke-width="1" d="M 5.5 11 L 3 14.5 L 2.5 17 L 2 14.5 L 5.5 11 Z" />
 <path fill="rgb(8,7,10)" stroke="rgb(8,7,10)" stroke-width="1" d="M 15.5 12 L 18 13.5 L 16.5 13 L 15.5 12 Z" />
 <path fill="rgb(8,7,10)" stroke="rgb(8,7,10)" stroke-width="1" d="M 42.5 12 L 46 12.5 L 42.5 13 L 42.5 12 Z" />
 <path fill="rgb(8,7,10)" stroke="rgb(8,7,10)" stroke-width="1" d="M 88 13 L 90 13.5 L 88.5 16 L 88 13 Z" />
 <path fill="rgb(8,7,10)" stroke="rgb(8,7,10)" stroke-width="1" d="M 10.5 14 L 9.5 16 L 10.5 14 Z" />
 <path fill="rgb(8,7,10)" stroke="rgb(8,7,10)" stroke-width="1" d="M 84.5 15 L 85.5 17 Q 82.7 17.7 84.5 15 Z" />
 <path fill="rgb(8,7,10)" stroke="rgb(8,7,10)" stroke-width="1" d="M 29.5 16 Q 32.5 17.5 31 23.5 L 30 23.5 Q 30.5 17.5 29.5 16 Z" />
 <path fill="rgb(8,7,10)" stroke="rgb(8,7,10)" stroke-width="1" d="M 54.5 16 L 56.5 17 L 58 16.5 Q 56.8 19.2 55.5 17 L 54.5 16 Z" />
 <path fill="rgb(8,7,10)" stroke="rgb(8,7,10)" stroke-width="1" d="M 93.5 16 L 94 20 L 97.5 18 L 97 19.5 L 97 21 L 93 21 L 93.5 16 Z" />
 <path fill="rgb(8,7,10)" stroke="rgb(8,7,10)" stroke-width="1" d="M 102.5 16 L 103 19.5 L 102 19.5 L 102.5 16 Z" />
 <path fill="rgb(8,7,10)" stroke="rgb(8,7,10)" stroke-width="1" d="M 23.5 17 L 24 19.5 L 23 19.5 L 23.5 17 Z" />
 <path fill="rgb(8,7,10)" stroke="rgb(8,7,10)" stroke-width="1" d="M 124.5 17 Q 127.5 17.5 127 21.5 L 126 21.5 L 124.5 17 Z" />
 <path fill="rgb(8,7,10)" stroke="rgb(8,7,10)" stroke-width="1" d="M 88.5 18 L 89 28.5 L 88 28.5 L 88.5 18 Z" />
 <path fill="rgb(8,7,10)" stroke="rgb(8,7,10)" stroke-width="1" d="M 39.5 19 Q 38.9 24.1 42 25.5 L 39 23.5 L 39.5 19 Z" />
 <path fill="rgb(8,7,10)" stroke="rgb(8,7,10)" stroke-width="1" d="M 64.5 20 L 66 20.5 L 64 21 L 65 23.5 L 63.5 29 L 63 21.5 L 64.5 20 Z" />
 <path fill="rgb(8,7,10)" stroke="rgb(8,7,10)" stroke-width="1" d="M 107.5 20 L 106.5 22 L 107.5 20 Z" />
 <path fill="rgb(8,7,10)" stroke="rgb(8,7,10)" stroke-width="1" d="M 109.5 20 L 110.5 22 L 109.5 20 Z" />
 <path fill="rgb(8,7,10)" stroke="rgb(8,7,10)" stroke-width="1" d="M 119.5 20 L 118.5 22 L 115.5 24 L 117.5 21 L 119.5 20 Z" />
 <path fill="rgb(8,7,10)" stroke="rgb(8,7,10)" stroke-width="1" d="M 145.5 20 L 146.5 22 L 145.5 20 Z" />
 <path fill="rgb(8,7,10)" stroke="rgb(8,7,10)" stroke-width="1" d="M 56.5 21 L 57 28.5 L 56 28.5 L 56.5 21 Z" />
 <path fill="rgb(8,7,10)" stroke="rgb(8,7,10)" stroke-width="1" d="M 66.5 22 L 67 30 L 69 30.5 L 67.5 31 L 66 29.5 L 66.5 22 Z" />
 <path fill="rgb(8,7,10)" stroke="rgb(8,7,10)" stroke-width="1" d="M 130.5 22 L 131 24.5 L 130 24.5 L 130.5 22 Z" />
 <path fill="rgb(8,7,10)" stroke="rgb(8,7,10)" stroke-width="1" d="M 135.5 23 L 139 25.5 L 137.5 25 Q 133.5 26 135.5 23 Z" />
 <path fill="rgb(8,7,10)" stroke="rgb(8,7,10)" stroke-width="1" d="M 2.5 24 L 4 27.5 L 2 26.5 L 2.5 24 Z" />
 <path fill="rgb(8,7,10)" stroke="rgb(8,7,10)" stroke-width="1" d="M 35.5 24 L 40 29.5 L 35 25.5 L 35.5 24 Z" />
 <path fill="rgb(8,7,10)" stroke="rgb(8,7,10)" stroke-width="1" d="M 93.5 24 L 94 28.5 L 93 28.5 L 93.5 24 Z" />
 <path fill="rgb(8,7,10)" stroke="rgb(8,7,10)" stroke-width="1" d="M 21.5 26 L 20.5 28 L 21.5 26 Z" />
 <path fill="rgb(8,7,10)" stroke="rgb(8,7,10)" stroke-width="1" d="M 127.5 27 L 129.5 30 L 127.5 27 Z" />
 <path fill="rgb(8,7,10)" stroke="rgb(8,7,10)" stroke-width="1" d="M 48.5 28 L 49 30 L 46 29.5 L 48.5 28 Z" />
 <path fill="rgb(8,7,10)" stroke="rgb(8,7,10)" stroke-width="1" d="M 52.5 29 L 56 30.5 L 53.5 31 L 52.5 29 Z" />
 <path fill="rgb(8,7,10)" stroke="rgb(8,7,10)" stroke-width="1" d="M 59.5 29 L 63 30.5 L 60.5 31 L 59.5 29 Z" />
 <path fill="rgb(8,7,10)" stroke="rgb(8,7,10)" stroke-width="1" d="M 74.5 29 L 73.5 31 L 71 30.5 L 74.5 29 Z" />
 <path fill="rgb(8,7,10)" stroke="rgb(8,7,10)" stroke-width="1" d="M 82.5 29 L 81.5 31 L 79 30.5 L 82.5 29 Z" />
 <path fill="rgb(8,7,10)" stroke="rgb(8,7,10)" stroke-width="1" d="M 84.5 29 L 85.5 31 L 84.5 29 Z" />
 <path fill="rgb(8,7,10)" stroke="rgb(8,7,10)" stroke-width="1" d="M 98.5 29 L 101.5 30 L 103 29.5 L 99.5 31 L 98.5 29 Z" />
 <path fill="rgb(8,7,10)" stroke="rgb(8,7,10)" stroke-width="1" d="M 111.5 29 L 110.5 31 L 109 30.5 L 111.5 29 Z" />
 <path fill="rgb(8,7,10)" stroke="rgb(8,7,10)" stroke-width="1" d="M 135.5 29 L 134.5 31 L 133 30.5 L 135.5 29 Z" />
 <path fill="rgb(8,7,10)" stroke="rgb(8,7,10)" stroke-width="1" d="M 150.5 29 L 149.5 31 L 147 30.5 L 150.5 29 Z" />
 <path fill="rgb(8,7,10)" stroke="rgb(8,7,10)" stroke-width="1" d="M 5.5 30 L 6.5 32 L 5.5 30 Z" />
 <path fill="rgb(8,7,10)" stroke="rgb(8,7,10)" stroke-width="1" d="M 90.5 30 L 93 30.5 L 90.5 31 L 90.5 30 Z" />
 <path fill="rgb(8,7,10)" stroke="rgb(8,7,10)" stroke-width="1" d="M 139.5 30 L 142 30.5 L 139.5 31 L 139.5 30 Z" />
 <path fill="rgb(8,7,10)" stroke="rgb(8,7,10)" stroke-width="1" d="M 11.5 34 L 15 34.5 L 11.5 35 L 11.5 34 Z" />
 <path fill="rgb(8,7,10)" stroke="rgb(8,7,10)" stroke-width="1" d="M 18.5 34 L 20 34.5 L 16.5 36 L 16.5 35 L 18.5 34 Z" />
 <path fill="rgb(42,37,50)" stroke="rgb(42,37,50)" stroke-width="1" d="M 12.5 7 L 15 7.5 L 12.5 8 L 12.5 7 Z" />
 <path fill="rgb(42,37,50)" stroke="rgb(42,37,50)" stroke-width="1" d="M 17.5 7 L 20 7.5 L 17.5 8 L 17.5 7 Z" />
 <path fill="rgb(42,37,50)" stroke="rgb(42,37,50)" stroke-width="1" d="M 9.5 8 L 8.5 10 L 9.5 8 Z" />
 <path fill="rgb(42,37,50)" stroke="rgb(42,37,50)" stroke-width="1" d="M 139.5 12 L 142 12.5 L 139.5 13 L 139.5 12 Z" />
 <path fill="rgb(42,37,50)" stroke="rgb(42,37,50)" stroke-width="1" d="M 38.5 14 L 36.5 17 L 38.5 14 Z" />
 <path fill="rgb(42,37,50)" stroke="rgb(42,37,50)" stroke-width="1" d="M 48.5 14 L 50.5 17 L 48.5 14 Z" />
 <path fill="rgb(42,37,50)" stroke="rgb(42,37,50)" stroke-width="1" d="M 100.5 14 L 101.5 16 L 100.5 14 Z" />
 <path fill="rgb(42,37,50)" stroke="rgb(42,37,50)" stroke-width="1" d="M 22.5 15 L 23.5 17 L 22.5 15 Z" />
 <path fill="rgb(42,37,50)" stroke="rgb(42,37,50)" stroke-width="1" d="M 41.5 16 L 39.5 19 L 41.5 16 Z" />
 <path fill="rgb(42,37,50)" stroke="rgb(42,37,50)" stroke-width="1" d="M 97.5 16 L 99 19.5 L 97 20.5 L 98 17.5 L 97.5 16 Z" />
 <path fill="rgb(42,37,50)" stroke="rgb(42,37,50)" stroke-width="1" d="M 29.5 17 L 30 19.5 L 29 19.5 L 29.5 17 Z" />
 <path fill="rgb(42,37,50)" stroke="rgb(42,37,50)" stroke-width="1" d="M 52.5 17 L 53 29 L 56 29.5 L 53.5 30 L 52 28.5 Q 53.3 23.7 51 22.5 L 51 20.5 L 52.5 17 Z" />
 <path fill="rgb(42,37,50)" stroke="rgb(42,37,50)" stroke-width="1" d="M 61.5 17 L 64 17.5 Q 61.9 20.8 61.5 17 Z" />
 <path fill="rgb(42,37,50)" stroke="rgb(42,37,50)" stroke-width="1" d="M 68.5 17 L 69.5 19 L 68.5 17 Z" />
 <path fill="rgb(42,37,50)" stroke="rgb(42,37,50)" stroke-width="1" d="M 75.5 17 L 74.5 19 L 75.5 17 Z" />
 <path fill="rgb(42,37,50)" stroke="rgb(42,37,50)" stroke-width="1" d="M 80.5 17 L 81.5 19 L 80.5 17 Z" />
 <path fill="rgb(42,37,50)" stroke="rgb(42,37,50)" stroke-width="1" d="M 84.5 17 L 85 29 L 88 29.5 L 85.5 30 L 84 28.5 L 84.5 17 Z" />
 <path fill="rgb(42,37,50)" stroke="rgb(42,37,50)" stroke-width="1" d="M 105.5 17 L 104 19.5 L 103.5 21 L 103 19.5 L 105.5 17 Z" />
 <path fill="rgb(42,37,50)" stroke="rgb(42,37,50)" stroke-width="1" d="M 111.5 17 L 113.5 20 L 111.5 17 Z" />
 <path fill="rgb(42,37,50)" stroke="rgb(42,37,50)" stroke-width="1" d="M 129.5 17 L 127.5 20 L 129.5 17 Z" />
 <path fill="rgb(42,37,50)" stroke="rgb(42,37,50)" stroke-width="1" d="M 135.5 17 L 137.5 20 L 135.5 17 Z" />
 <path fill="rgb(42,37,50)" stroke="rgb(42,37,50)" stroke-width="1" d="M 143.5 17 L 142.5 19 L 143.5 17 Z" />
 <path fill="rgb(42,37,50)" stroke="rgb(42,37,50)" stroke-width="1" d="M 24.5 19 L 25 22.5 L 24 22.5 L 24.5 19 Z" />
 <path fill="rgb(42,37,50)" stroke="rgb(42,37,50)" stroke-width="1" d="M 82.5 20 L 83 28.5 L 79.5 30 L 79.5 29 L 82 28.5 L 82.5 20 Z" />
 <path fill="rgb(42,37,50)" stroke="rgb(42,37,50)" stroke-width="1" d="M 29.5 21 L 30 24.5 L 29 24.5 L 29.5 21 Z" />
 <path fill="rgb(42,37,50)" stroke="rgb(42,37,50)" stroke-width="1" d="M 59.5 21 L 60 29 L 63 29.5 L 60.5 30 L 59 28.5 L 59.5 21 Z" />
 <path fill="rgb(42,37,50)" stroke="rgb(42,37,50)" stroke-width="1" d="M 101.5 21 L 99.5 24 L 101.5 21 Z" />
 <path fill="rgb(42,37,50)" stroke="rgb(42,37,50)" stroke-width="1" d="M 126.5 22 L 127 24.5 L 126 24.5 L 126.5 22 Z" />
 <path fill="rgb(42,37,50)" stroke="rgb(42,37,50)" stroke-width="1" d="M 150.5 23 L 151 28.5 L 147.5 30 L 147.5 29 L 150 29 L 150.5 23 Z" />
 <path fill="rgb(42,37,50)" stroke="rgb(42,37,50)" stroke-width="1" d="M 106 24 L 113.5 24 L 114 26 L 107.5 25 L 107.5 27 L 106 24 Z" />
 <path fill="rgb(42,37,50)" stroke="rgb(42,37,50)" stroke-width="1" d="M 119.5 24 L 121 24.5 L 118.5 26 L 119.5 24 Z" />
 <path fill="rgb(42,37,50)" stroke="rgb(42,37,50)" stroke-width="1" d="M 122.5 24 L 123 25.5 L 121 26.5 L 122.5 24 Z" />
 <path fill="rgb(42,37,50)" stroke="rgb(42,37,50)" stroke-width="1" d="M 100.5 25 L 101.5 27 L 100.5 25 Z" />
 <path fill="rgb(42,37,50)" stroke="rgb(42,37,50)" stroke-width="1" d="M 130.5 25 L 133.5 26 L 135 25.5 L 131.5 27 L 130.5 25 Z" />
 <path fill="rgb(42,37,50)" stroke="rgb(42,37,50)" stroke-width="1" d="M 9.5 26 L 10.5 28 L 9.5 26 Z" />
 <path fill="rgb(42,37,50)" stroke="rgb(42,37,50)" stroke-width="1" d="M 50.5 26 L 49.5 28 L 50.5 26 Z" />
 <path fill="rgb(42,37,50)" stroke="rgb(42,37,50)" stroke-width="1" d="M 103.5 26 L 105 28.5 Q 103.3 26.9 101.5 30 L 98 28.5 L 99.5 29 L 103 27.5 L 103.5 26 Z" />
 <path fill="rgb(42,37,50)" stroke="rgb(42,37,50)" stroke-width="1" d="M 113.5 27 L 112.5 29 L 113.5 27 Z" />
 <path fill="rgb(42,37,50)" stroke="rgb(42,37,50)" stroke-width="1" d="M 4.5 28 L 7.5 32 L 4.5 28 Z" />
 <path fill="rgb(42,37,50)" stroke="rgb(42,37,50)" stroke-width="1" d="M 27.5 28 L 24.5 32 L 27.5 28 Z" />
 <path fill="rgb(42,37,50)" stroke="rgb(42,37,50)" stroke-width="1" d="M 40.5 29 L 43 29.5 L 40.5 30 L 40.5 29 Z" />
 <path fill="rgb(42,37,50)" stroke="rgb(42,37,50)" stroke-width="1" d="M 67.5 29 L 70 29.5 L 67.5 30 L 67.5 29 Z" />
 <path fill="rgb(42,37,50)" stroke="rgb(42,37,50)" stroke-width="1" d="M 71.5 29 L 74 29.5 L 71.5 30 L 71.5 29 Z" />
 <path fill="rgb(42,37,50)" stroke="rgb(42,37,50)" stroke-width="1" d="M 90.5 29 L 93 29.5 L 90.5 30 L 90.5 29 Z" />
 <path fill="rgb(42,37,50)" stroke="rgb(42,37,50)" stroke-width="1" d="M 106.5 29 L 111 29.5 L 106.5 30 L 106.5 29 Z" />
 <path fill="rgb(42,37,50)" stroke="rgb(42,37,50)" stroke-width="1" d="M 123.5 29 L 126 29.5 L 123.5 30 L 123.5 29 Z" />
 <path fill="rgb(42,37,50)" stroke="rgb(42,37,50)" stroke-width="1" d="M 130.5 29 L 135 29.5 L 130.5 30 L 130.5 29 Z" />
 <path fill="rgb(42,37,50)" stroke="rgb(42,37,50)" stroke-width="1" d="M 139.5 29 L 142 29.5 L 139.5 30 L 139.5 29 Z" />
 <path fill="rgb(42,37,50)" stroke="rgb(42,37,50)" stroke-width="1" d="M 22.5 32 L 21.5 34 L 20 33.5 L 22.5 32 Z" />
 <path fill="rgb(42,37,50)" stroke="rgb(42,37,50)" stroke-width="1" d="M 15.5 34 L 18 34.5 L 15.5 35 L 15.5 34 Z" />
 <path fill="rgb(88,41,172)" stroke="rgb(88,41,172)" stroke-width="1" d="M 15.5 7 L 21.5 8 L 27 12.5 L 30 20.5 L 28 27.5 L 23.5 32 Q 20.2 35.2 12.5 34 Q 6.4 32.6 4 27.5 Q 1.4 24.6 2 18.5 Q 3.3 12.8 7.5 10 L 15.5 7 Z M 13.5 12 L 11.5 13 L 7 19.5 L 9 26.5 L 12.5 29 L 19.5 29 L 23 27 L 25 22.5 L 24 16.5 Q 22.1 10.9 13.5 12 Z" />
 <path fill="rgb(88,41,172)" stroke="rgb(88,41,172)" stroke-width="1" d="M 74.5 22 L 75 28.5 L 74 28.5 L 74.5 22 Z" />
 <path fill="rgb(88,41,172)" stroke="rgb(88,41,172)" stroke-width="1" d="M 93.5 23 L 97 24.5 L 95.5 24 Q 92.5 24.5 93.5 23 Z" />
 <path fill="rgb(130,130,130)" stroke="rgb(130,130,130)" stroke-width="1" d="M 86.5 12 L 88 14.5 L 86 15.5 L 87 13.5 L 86.5 12 Z" />
 <path fill="rgb(130,130,130)" stroke="rgb(130,130,130)" stroke-width="1" d="M 41.5 13 L 46 13.5 L 41.5 14 L 41.5 13 Z" />
 <path fill="rgb(130,130,130)" stroke="rgb(130,130,130)" stroke-width="1" d="M 90.5 13 L 98 13.5 L 90.5 14 L 90.5 13 Z" />
 <path fill="rgb(130,130,130)" stroke="rgb(130,130,130)" stroke-width="1" d="M 42.5 15 L 45 15.5 L 42.5 16 L 42.5 15 Z" />
 <path fill="rgb(130,130,130)" stroke="rgb(130,130,130)" stroke-width="1" d="M 93.5 15 L 97 15.5 L 93.5 16 L 93.5 15 Z" />
 <path fill="rgb(130,130,130)" stroke="rgb(130,130,130)" stroke-width="1" d="M 53.5 17 L 59 19.5 L 57.5 20 L 53.5 18 L 53.5 17 Z" />
 <path fill="rgb(130,130,130)" stroke="rgb(130,130,130)" stroke-width="1" d="M 58.5 17 L 62 18.5 L 60.5 18 Q 57.5 18.5 58.5 17 Z" />
 <path fill="rgb(130,130,130)" stroke="rgb(130,130,130)" stroke-width="1" d="M 64.5 17 L 68 17.5 L 64.5 18 L 64.5 17 Z" />
 <path fill="rgb(130,130,130)" stroke="rgb(130,130,130)" stroke-width="1" d="M 72.5 17 L 74 17.5 L 72 18 L 71.5 29 L 71 18.5 L 72.5 17 Z" />
 <path fill="rgb(130,130,130)" stroke="rgb(130,130,130)" stroke-width="1" d="M 76.5 17 L 80 17.5 L 76.5 18 L 76.5 17 Z" />
 <path fill="rgb(130,130,130)" stroke="rgb(130,130,130)" stroke-width="1" d="M 85.5 17 L 88 18.5 L 87.5 29 L 87 18 L 85.5 17 Z" />
 <path fill="rgb(130,130,130)" stroke="rgb(130,130,130)" stroke-width="1" d="M 107.5 17 L 110 17.5 L 107.5 18 L 107.5 17 Z" />
 <path fill="rgb(130,130,130)" stroke="rgb(130,130,130)" stroke-width="1" d="M 119.5 17 L 123 17.5 L 119.5 18 L 119.5 17 Z" />
 <path fill="rgb(130,130,130)" stroke="rgb(130,130,130)" stroke-width="1" d="M 131.5 17 L 134 17.5 L 131.5 18 L 131.5 17 Z" />
 <path fill="rgb(130,130,130)" stroke="rgb(130,130,130)" stroke-width="1" d="M 144.5 17 Q 148.3 16.3 149 18.5 L 147.5 18 Q 143.5 18.8 144.5 17 Z" />
 <path fill="rgb(130,130,130)" stroke="rgb(130,130,130)" stroke-width="1" d="M 117.5 18 L 117.5 20 L 119 20.5 L 116 21 L 117.5 18 Z" />
 <path fill="rgb(130,130,130)" stroke="rgb(130,130,130)" stroke-width="1" d="M 107.5 19 L 111 20.5 L 109.5 20 Q 106.5 20.5 107.5 19 Z" />
 <path fill="rgb(130,130,130)" stroke="rgb(130,130,130)" stroke-width="1" d="M 143.5 19 L 147 20.5 L 145.5 20 L 142.5 21 L 143.5 19 Z" />
 <path fill="rgb(130,130,130)" stroke="rgb(130,130,130)" stroke-width="1" d="M 38.5 20 L 39 22.5 L 38 22.5 L 38.5 20 Z" />
 <path fill="rgb(130,130,130)" stroke="rgb(130,130,130)" stroke-width="1" d="M 137.5 20 L 136.5 22 L 137.5 20 Z" />
 <path fill="rgb(130,130,130)" stroke="rgb(130,130,130)" stroke-width="1" d="M 55.5 21 L 56 28.5 L 55 28.5 L 55.5 21 Z" />
 <path fill="rgb(130,130,130)" stroke="rgb(130,130,130)" stroke-width="1" d="M 79.5 21 L 80 28.5 L 79 28.5 L 79.5 21 Z" />
 <path fill="rgb(130,130,130)" stroke="rgb(130,130,130)" stroke-width="1" d="M 125.5 21 L 126 28.5 L 125 28.5 L 125.5 21 Z" />
 <path fill="rgb(130,130,130)" stroke="rgb(130,130,130)" stroke-width="1" d="M 106.5 22 L 111 22.5 L 106.5 23 L 106.5 22 Z" />
 <path fill="rgb(130,130,130)" stroke="rgb(130,130,130)" stroke-width="1" d="M 118.5 22 L 121 22.5 L 118.5 23 L 118.5 22 Z" />
 <path fill="rgb(130,130,130)" stroke="rgb(130,130,130)" stroke-width="1" d="M 136.5 25 Q 138.8 24.3 138 26.5 L 135 28.5 Q 138.1 26.7 136.5 25 Z" />
 <path fill="rgb(130,130,130)" stroke="rgb(130,130,130)" stroke-width="1" d="M 37.5 26 L 38.5 28 L 37.5 26 Z" />
 <path fill="rgb(130,130,130)" stroke="rgb(130,130,130)" stroke-width="1" d="M 49.5 26 L 48.5 28 L 49.5 26 Z" />
 <path fill="rgb(130,130,130)" stroke="rgb(130,130,130)" stroke-width="1" d="M 104.5 27 L 105.5 29 L 104.5 27 Z" />
 <path fill="rgb(200,200,200)" stroke="rgb(200,200,200)" stroke-width="1" d="M 85 13 Q 88 12 87 15 Q 84 16 85 13 Z" />
 <path fill="rgb(200,200,200)" stroke="rgb(200,200,200)" stroke-width="1" d="M 40.5 14 L 43 14.5 L 39 17.5 L 38 23.5 Q 39 28 45.5 27 L 48 26 L 49 19.5 L 45.5 15 L 44 14.5 L 46.5 14 Q 51.9 15.6 51 23.5 L 47.5 28 L 41.5 29 L 37 25.5 L 36 19.5 L 37 16 L 40.5 14 Z" />
 <path fill="rgb(200,200,200)" stroke="rgb(200,200,200)" stroke-width="1" d="M 91 14 L 98.5 14 L 101 16.5 Q 102 22.5 98 23.5 L 101 28 L 98 26.5 L 97 23 L 93 23 L 93 29 L 91 29 L 91 14 Z M 93 15 L 93 22 Q 98 22.8 100 19.5 L 99 16.5 Q 97.6 13.8 93 15 Z" />
 <path fill="rgb(200,200,200)" stroke="rgb(200,200,200)" stroke-width="1" d="M 141.5 14 L 142 28.5 L 140 27.5 L 140 15.5 L 141.5 14 Z" />
 <path fill="rgb(200,200,200)" stroke="rgb(200,200,200)" stroke-width="1" d="M 53 18 L 56.5 19 L 60.5 18 Q 64.8 19.8 62 21.5 Q 63.5 29.1 60 28 L 60 20.5 L 58.5 19 L 55 21.5 Q 56.5 27.5 53.5 29 L 53 18 Z" />
 <path fill="rgb(200,200,200)" stroke="rgb(200,200,200)" stroke-width="1" d="M 64.5 18 Q 68.3 17.3 69 19.5 L 70 27.5 Q 68.5 30.5 67 27.5 L 67 19.5 L 64.5 19 L 64.5 18 Z" />
 <path fill="rgb(200,200,200)" stroke="rgb(200,200,200)" stroke-width="1" d="M 72 18 L 75 19.5 L 74 29 L 72 28.5 L 72 18 Z" />
 <path fill="rgb(200,200,200)" stroke="rgb(200,200,200)" stroke-width="1" d="M 76.5 18 Q 81.3 17.3 82 20.5 L 82 28.5 L 80 29 Q 81 22.1 79 19 Q 75.7 19.8 76.5 18 Z" />
 <path fill="rgb(200,200,200)" stroke="rgb(200,200,200)" stroke-width="1" d="M 85 18 L 87 18.5 L 87 27.5 L 85 28.5 L 85 18 Z" />
 <path fill="rgb(200,200,200)" stroke="rgb(200,200,200)" stroke-width="1" d="M 106.5 18 Q 112 17 113 20.5 L 114 23.5 L 105 24 L 106.5 27 L 109.5 28 L 112.5 26 L 111.5 28 L 107.5 29 L 104 26.5 L 103 22.5 L 106.5 18 Z M 107.5 19 Q 103 21 106.5 23 Q 111 24 112 21.5 Q 111.5 18.5 107.5 19 Z" />
 <path fill="rgb(200,200,200)" stroke="rgb(200,200,200)" stroke-width="1" d="M 118.5 18 Q 123.8 16.8 125 19.5 L 125 27.5 L 123 28 L 122 22.5 L 123 19 L 117.5 20 L 118.5 18 Z" />
 <path fill="rgb(200,200,200)" stroke="rgb(200,200,200)" stroke-width="1" d="M 130.5 18 Q 136.6 16.8 136 19.5 L 136.5 21 L 131.5 19 Q 128.3 19.8 129 24.5 L 130 27 L 132.5 28 L 135 27 L 135.5 25 Q 138.5 26.5 135.5 28 L 131.5 29 L 128 26.5 Q 126.5 19.5 130.5 18 Z" />
 <path fill="rgb(200,200,200)" stroke="rgb(200,200,200)" stroke-width="1" d="M 143.5 18 Q 149 17 150 20.5 L 150 27.5 L 148.5 28 L 147 28.5 L 147 20.5 L 145.5 19 Q 142.5 19.5 143.5 18 Z" />
 <path fill="rgb(200,200,200)" stroke="rgb(200,200,200)" stroke-width="1" d="M 117.5 23 L 121 23.5 L 118 24 L 119.5 28 L 121.5 27 L 120.5 29 L 116 28 Q 115 24.2 117.5 23 Z" />
 <path fill="rgb(174,174,175)" stroke="rgb(174,174,175)" stroke-width="1" d="M 140.5 13 L 142 13.5 L 140 15.5 L 140 27.5 L 140.5 29 L 139 28.5 L 139 14.5 L 140.5 13 Z" />
 <path fill="rgb(174,174,175)" stroke="rgb(174,174,175)" stroke-width="1" d="M 90.5 14 L 91 28.5 L 90 28.5 L 90.5 14 Z" />
 <path fill="rgb(174,174,175)" stroke="rgb(174,174,175)" stroke-width="1" d="M 45.5 15 L 46.5 17 L 45.5 15 Z" />
 <path fill="rgb(174,174,175)" stroke="rgb(174,174,175)" stroke-width="1" d="M 48.5 15 L 49.5 17 L 48.5 15 Z" />
 <path fill="rgb(174,174,175)" stroke="rgb(174,174,175)" stroke-width="1" d="M 97.5 15 L 98.5 17 L 97.5 15 Z" />
 <path fill="rgb(174,174,175)" stroke="rgb(174,174,175)" stroke-width="1" d="M 40.5 16 L 39.5 18 L 40.5 16 Z" />
 <path fill="rgb(174,174,175)" stroke="rgb(174,174,175)" stroke-width="1" d="M 63.5 18 L 64 20 L 62 19.5 L 63.5 18 Z" />
 <path fill="rgb(174,174,175)" stroke="rgb(174,174,175)" stroke-width="1" d="M 80.5 18 L 81.5 20 L 80.5 18 Z" />
 <path fill="rgb(174,174,175)" stroke="rgb(174,174,175)" stroke-width="1" d="M 99.5 18 L 100 19.5 L 98 20.5 L 99.5 18 Z" />
 <path fill="rgb(174,174,175)" stroke="rgb(174,174,175)" stroke-width="1" d="M 111.5 18 L 112.5 20 L 111.5 18 Z" />
 <path fill="rgb(174,174,175)" stroke="rgb(174,174,175)" stroke-width="1" d="M 129.5 18 L 128.5 20 L 129.5 18 Z" />
 <path fill="rgb(174,174,175)" stroke="rgb(174,174,175)" stroke-width="1" d="M 62.5 21 L 63 27.5 L 60.5 29 L 60.5 28 L 62 27.5 L 62.5 21 Z" />
 <path fill="rgb(174,174,175)" stroke="rgb(174,174,175)" stroke-width="1" d="M 93.5 21 L 97 21.5 L 93.5 22 L 93.5 21 Z" />
 <path fill="rgb(174,174,175)" stroke="rgb(174,174,175)" stroke-width="1" d="M 127.5 22 L 128 24.5 L 127 24.5 L 127.5 22 Z" />
 <path fill="rgb(174,174,175)" stroke="rgb(174,174,175)" stroke-width="1" d="M 108.5 27 L 111 28.5 L 109.5 28 L 108.5 27 Z" />
 <path fill="rgb(174,174,175)" stroke="rgb(174,174,175)" stroke-width="1" d="M 122.5 27 L 125 28.5 L 123.5 29 L 121 28.5 L 122.5 27 Z" />
 <path fill="rgb(174,174,175)" stroke="rgb(174,174,175)" stroke-width="1" d="M 99.5 28 L 102 28.5 L 99.5 29 L 99.5 28 Z" />
 <path fill="rgb(2,2,1)" stroke="rgb(2,2,1)" stroke-width="1" d="M 38 0 L 40 0.5 L 38 1.5 L 38 0 Z" />
 <path fill="rgb(2,2,1)" stroke="rgb(2,2,1)" stroke-width="1" d="M 120.5 0 L 120 1.5 L 119.5 3 L 118.5 1 L 120.5 0 Z" />
 <path fill="rgb(2,2,1)" stroke="rgb(2,2,1)" stroke-width="1" d="M 122 0 L 124 0.5 L 122 1.5 L 122 0 Z" />
 <path fill="rgb(2,2,1)" stroke="rgb(2,2,1)" stroke-width="1" d="M 135.5 0 L 138 0.5 L 135.5 1 L 135.5 0 Z" />
 <path fill="rgb(2,2,1)" stroke="rgb(2,2,1)" stroke-width="1" d="M 12.5 2 L 15 3.5 L 13.5 3 L 12.5 2 Z" />
 <path fill="rgb(2,2,1)" stroke="rgb(2,2,1)" stroke-width="1" d="M 19.5 2 L 21.5 5 Q 17.1 6.5 18 3.5 L 19.5 2 Z" />
 <path fill="rgb(2,2,1)" stroke="rgb(2,2,1)" stroke-width="1" d="M 142.5 2 L 143.5 4 L 142.5 2 Z" />
 <path fill="rgb(2,2,1)" stroke="rgb(2,2,1)" stroke-width="1" d="M 46.5 3 Q 49.3 4.3 47 5.5 L 46.5 7 L 46 5.5 L 46.5 3 Z" />
 <path fill="rgb(2,2,1)" stroke="rgb(2,2,1)" stroke-width="1" d="M 109.5 3 L 111.5 3 L 113 3.5 L 110.5 5 L 109.5 3 Z" />
 <path fill="rgb(2,2,1)" stroke="rgb(2,2,1)" stroke-width="1" d="M 128.5 3 Q 130.8 2.3 130 4.5 L 128.5 3 Z" />
 <path fill="rgb(2,2,1)" stroke="rgb(2,2,1)" stroke-width="1" d="M 0.5 4 L 3.5 5 L 5 4.5 Q 2.2 6.3 6.5 8 L 8 7.5 L 4.5 9 L 2 8.5 L 3 6 L 0.5 4 Z" />
 <path fill="rgb(2,2,1)" stroke="rgb(2,2,1)" stroke-width="1" d="M 55.5 4 L 56.5 6 Q 53.7 6.7 55.5 4 Z" />
 <path fill="rgb(2,2,1)" stroke="rgb(2,2,1)" stroke-width="1" d="M 62.5 4 L 65 8.5 L 64 8.5 L 62.5 4 Z" />
 <path fill="rgb(2,2,1)" stroke="rgb(2,2,1)" stroke-width="1" d="M 92.5 4 L 93 6 L 95 6.5 L 93 7.5 L 92.5 4 Z" />
 <path fill="rgb(2,2,1)" stroke="rgb(2,2,1)" stroke-width="1" d="M 102.5 4 L 105 5.5 L 103 6.5 L 102.5 4 Z" />
 <path fill="rgb(2,2,1)" stroke="rgb(2,2,1)" stroke-width="1" d="M 114.5 4 L 116 6.5 L 113 6.5 L 114.5 4 Z" />
 <path fill="rgb(2,2,1)" stroke="rgb(2,2,1)" stroke-width="1" d="M 123.5 4 L 125 6.5 L 123 5.5 L 123.5 4 Z" />
 <path fill="rgb(2,2,1)" stroke="rgb(2,2,1)" stroke-width="1" d="M 78.5 5 L 79.5 7 L 78.5 5 Z" />
 <path fill="rgb(2,2,1)" stroke="rgb(2,2,1)" stroke-width="1" d="M 108.5 5 L 109.5 7 Q 106.7 7.7 108.5 5 Z" />
 <path fill="rgb(2,2,1)" stroke="rgb(2,2,1)" stroke-width="1" d="M 118.5 5 L 121 5.5 Q 118.9 8.8 118.5 5 Z" />
 <path fill="rgb(2,2,1)" stroke="rgb(2,2,1)" stroke-width="1" d="M 30.5 7 Q 32.8 6.3 32 8.5 L 30.5 7 Z" />
 <path fill="rgb(2,2,1)" stroke="rgb(2,2,1)" stroke-width="1" d="M 38.5 7 L 40 10 Q 44.5 10.8 46.5 8 L 45.5 10 L 41.5 12 L 39 11.5 Q 41.3 10.3 38.5 9 L 37 8.5 L 38.5 7 Z" />
 <path fill="rgb(2,2,1)" stroke="rgb(2,2,1)" stroke-width="1" d="M 53.5 7 L 54 9 L 52 8.5 L 53.5 7 Z" />
 <path fill="rgb(2,2,1)" stroke="rgb(2,2,1)" stroke-width="1" d="M 150.5 7 L 151 8.5 L 147.5 10 L 147.5 9 L 150.5 7 Z" />
 <path fill="rgb(2,2,1)" stroke="rgb(2,2,1)" stroke-width="1" d="M 74.5 8 L 77.5 10 L 80 8.5 L 76.5 11 L 74.5 8 Z" />
 <path fill="rgb(2,2,1)" stroke="rgb(2,2,1)" stroke-width="1" d="M 118.5 8 L 119 11 L 121 11.5 L 119.5 12 Q 117 11 118.5 8 Z" />
 <path fill="rgb(2,2,1)" stroke="rgb(2,2,1)" stroke-width="1" d="M 94.5 9 L 99 9.5 L 98.5 12 L 95.5 11 L 93.5 12 L 93.5 11 L 95 10.5 L 94.5 9 Z" />
 <path fill="rgb(2,2,1)" stroke="rgb(2,2,1)" stroke-width="1" d="M 106.5 9 L 109 10.5 L 107 11.5 L 107.5 10 L 106.5 9 Z" />
 <path fill="rgb(2,2,1)" stroke="rgb(2,2,1)" stroke-width="1" d="M 141.5 9 L 145 9.5 L 142 11.5 L 141.5 10 L 140 10.5 L 141.5 9 Z" />
 <path fill="rgb(2,2,1)" stroke="rgb(2,2,1)" stroke-width="1" d="M 57.5 10 L 58.5 12 L 57.5 10 Z" />
 <path fill="rgb(2,2,1)" stroke="rgb(2,2,1)" stroke-width="1" d="M 2.5 11 L 3.5 13 L 2.5 11 Z" />
 <path fill="rgb(2,2,1)" stroke="rgb(2,2,1)" stroke-width="1" d="M 83.5 17 L 82.5 19 L 83.5 17 Z" />
 <path fill="rgb(2,2,1)" stroke="rgb(2,2,1)" stroke-width="1" d="M 31.5 20 L 32.5 22 L 31.5 20 Z" />
 <path fill="rgb(2,2,1)" stroke="rgb(2,2,1)" stroke-width="1" d="M 78.5 28 L 77.5 30 L 76 29.5 L 78.5 28 Z" />
 <path fill="rgb(2,2,1)" stroke="rgb(2,2,1)" stroke-width="1" d="M 143.5 29 L 144.5 31 L 143.5 29 Z" />
 <path fill="rgb(1,2,3)" stroke="rgb(1,2,3)" stroke-width="1" d="M 10.5 0 L 15 1 L 15.5 3 L 16.5 1 L 17 2.5 Q 14.7 6.2 12.5 1 Q 9.5 1.5 10.5 0 Z" />
 <path fill="rgb(1,2,3)" stroke="rgb(1,2,3)" stroke-width="1" d="M 27.5 0 Q 29.8 -0.8 29 1.5 L 27 2.5 L 27.5 0 Z" />
 <path fill="rgb(1,2,3)" stroke="rgb(1,2,3)" stroke-width="1" d="M 35 0 L 38 0.5 L 37.5 2 L 40 3.5 L 38.5 3 L 35 2 L 35 0 Z" />
 <path fill="rgb(1,2,3)" stroke="rgb(1,2,3)" stroke-width="1" d="M 41.5 0 L 40.5 2 L 41.5 0 Z" />
 <path fill="rgb(1,2,3)" stroke="rgb(1,2,3)" stroke-width="1" d="M 43.5 0 L 47 1.5 Q 43.5 3 46 4.5 Q 44.8 8.3 48.5 7 Q 51.3 5.8 49 4.5 L 50.5 2 L 52.5 2 L 54 1.5 L 52 0.5 L 55 0 Q 53.9 2.7 56.5 2 L 56.5 5 L 53.5 3 L 53 6 Q 50.3 4.9 51 7.5 L 53 7.5 L 52 10.5 L 52.5 12 L 49.5 11 L 46.5 12 L 44 10.5 L 46.5 10 Q 48.2 12.8 50 8.5 L 49.5 7 Q 48 10.5 46.5 8 L 45 8 L 45 4 L 43.5 4 L 43.5 3 L 45 2.5 L 43.5 0 Z" />
 <path fill="rgb(1,2,3)" stroke="rgb(1,2,3)" stroke-width="1" d="M 57.5 0 L 59 2.5 L 58 2.5 L 57.5 0 Z" />
 <path fill="rgb(1,2,3)" stroke="rgb(1,2,3)" stroke-width="1" d="M 70.5 0 Q 74.7 -1.1 73 3 L 69.5 4 L 70.5 2 L 72 1.5 L 70.5 0 Z" />
 <path fill="rgb(1,2,3)" stroke="rgb(1,2,3)" stroke-width="1" d="M 76.5 0 L 75.5 3 L 77.5 2 L 77.5 6 L 80 7.5 L 78 7.5 Q 76.9 10.8 79.5 10 L 83 7.5 L 80.5 12 L 78.5 12 L 77 11.5 L 78 10.5 L 76 6.5 L 77 4.5 L 75.5 4 Q 73.3 4.8 74 8.5 L 74 10.5 L 73.5 12 L 72 9.5 L 73 6 L 69.5 7 L 69.5 6 L 74 4 L 76.5 0 Z" />
 <path fill="rgb(1,2,3)" stroke="rgb(1,2,3)" stroke-width="1" d="M 81.5 0 L 84.5 1 L 87.5 0 L 87.5 1 L 86 1.5 L 87 4.5 L 85 3.5 Q 85.8 1.3 83.5 2 L 82.5 5 L 80.5 2 L 82 1.5 L 81.5 0 Z" />
 <path fill="rgb(1,2,3)" stroke="rgb(1,2,3)" stroke-width="1" d="M 95.5 0 L 98 0.5 L 97 4.5 L 98.5 4 Q 100.8 3.3 100 5.5 L 97.5 6 L 95.5 7 L 96 3.5 L 94 1.5 L 95.5 0 Z" />
 <path fill="rgb(1,2,3)" stroke="rgb(1,2,3)" stroke-width="1" d="M 106.5 0 L 109 0.5 L 107 1.5 L 107.5 3 L 105.5 3 Q 103.3 2.3 104 4.5 L 101 6.5 L 101.5 4 L 103 4.5 L 102 1.5 L 103.5 1 Q 105 3.5 106.5 0 Z" />
 <path fill="rgb(1,2,3)" stroke="rgb(1,2,3)" stroke-width="1" d="M 111.5 0 L 115.5 0 L 117.5 1 L 119.5 0 L 119.5 1 L 114.5 3 L 113.5 1 L 113 3 L 111 3.5 L 114 5.5 L 112.5 8 L 111 7.5 Q 110.3 9.8 112.5 9 L 112 10.5 L 111.5 12 L 109.5 12 L 106 10.5 L 107.5 10 L 109 10.5 L 110 8.5 L 108.5 5 L 106.5 6 L 105.5 4 L 107.5 5 L 109.5 5 L 111 4.5 L 110 1.5 L 111.5 0 Z" />
 <path fill="rgb(1,2,3)" stroke="rgb(1,2,3)" stroke-width="1" d="M 125.5 0 L 128 0.5 L 126 1 L 125.5 6 L 121.5 3 L 121 5 L 125 7.5 L 122.5 8 L 121 7.5 L 121.5 10 Q 122.8 7.8 124 10.5 Q 124.8 12.8 122.5 12 L 119.5 11 L 117.5 12 L 117.5 11 L 120 9.5 L 118 8.5 L 117.5 10 L 116.5 7 L 114.5 8 L 114.5 7 L 116 6.5 L 115 4 L 117 4.5 Q 114.8 5.8 117.5 7 L 119.5 8 L 120 6.5 L 119 3 L 125.5 0 Z" />
 <path fill="rgb(1,2,3)" stroke="rgb(1,2,3)" stroke-width="1" d="M 138.5 0 L 140.5 1 L 142.5 1 L 146 0 L 147 2.5 L 145.5 3 Q 144.3 0.7 143 3.5 L 143.5 5 L 141 4 Q 142.1 1.3 139.5 2 L 139.5 5 Q 142.8 3.9 142 6.5 L 140.5 6 L 138.5 5 L 137 5.5 L 135 1.5 Q 136.8 3.1 138.5 0 Z" />
 <path fill="rgb(1,2,3)" stroke="rgb(1,2,3)" stroke-width="1" d="M 147.5 0 L 151 1.5 L 149 1.5 Q 148.3 4.1 151 3 L 151 6.5 L 150 6.5 L 147.5 0 Z" />
 <path fill="rgb(1,2,3)" stroke="rgb(1,2,3)" stroke-width="1" d="M 18.5 1 L 19.5 3 L 21 2.5 Q 19.5 5.5 18 2.5 L 18.5 1 Z" />
 <path fill="rgb(1,2,3)" stroke="rgb(1,2,3)" stroke-width="1" d="M 31.5 2 L 33.5 6 Q 36.8 7.1 36 4.5 L 37 4.5 L 38 6.5 L 36.5 9 L 30 5.5 L 31.5 2 Z" />
 <path fill="rgb(1,2,3)" stroke="rgb(1,2,3)" stroke-width="1" d="M 60.5 2 L 64 3.5 L 61.5 4 L 60.5 2 Z" />
 <path fill="rgb(1,2,3)" stroke="rgb(1,2,3)" stroke-width="1" d="M 128.5 2 L 131 2.5 L 128.5 3 L 128.5 2 Z" />
 <path fill="rgb(1,2,3)" stroke="rgb(1,2,3)" stroke-width="1" d="M 8.5 3 L 9.5 5 Q 6.7 5.7 8.5 3 Z" />
 <path fill="rgb(1,2,3)" stroke="rgb(1,2,3)" stroke-width="1" d="M 41.5 3 L 42 5.5 Q 38.9 7.3 40.5 9 L 39 6 Q 42.1 7.1 41.5 3 Z" />
 <path fill="rgb(1,2,3)" stroke="rgb(1,2,3)" stroke-width="1" d="M 1.5 4 L 0.5 6 L 1.5 4 Z" />
 <path fill="rgb(1,2,3)" stroke="rgb(1,2,3)" stroke-width="1" d="M 13.5 4 L 15 6.5 L 14 6.5 L 13.5 4 Z" />
 <path fill="rgb(1,2,3)" stroke="rgb(1,2,3)" stroke-width="1" d="M 24.5 4 L 25 7 L 23 6.5 L 24.5 4 Z" />
 <path fill="rgb(1,2,3)" stroke="rgb(1,2,3)" stroke-width="1" d="M 90.5 4 L 91.5 6 L 90.5 4 Z" />
 <path fill="rgb(1,2,3)" stroke="rgb(1,2,3)" stroke-width="1" d="M 127 4 L 130.5 6 L 132 5.5 Q 132.8 7.8 130.5 7 L 128.5 6 L 127 6.5 L 127 4 Z" />
 <path fill="rgb(1,2,3)" stroke="rgb(1,2,3)" stroke-width="1" d="M 4.5 5 L 7 6.5 L 5.5 6 L 4.5 5 Z" />
 <path fill="rgb(1,2,3)" stroke="rgb(1,2,3)" stroke-width="1" d="M 26.5 5 L 29 5.5 L 27.5 8 L 25.5 9 L 26 7.5 L 26.5 5 Z" />
 <path fill="rgb(1,2,3)" stroke="rgb(1,2,3)" stroke-width="1" d="M 134.5 5 L 135 6.5 L 133 7.5 L 134.5 5 Z" />
 <path fill="rgb(1,2,3)" stroke="rgb(1,2,3)" stroke-width="1" d="M 57 6 L 60 6.5 L 59.5 8 L 62.5 7 L 63.5 9 L 56 12 L 57.5 9 L 60.5 10 L 60.5 9 L 57 8 L 57 6 Z" />
 <path fill="rgb(1,2,3)" stroke="rgb(1,2,3)" stroke-width="1" d="M 67.5 6 L 69 8.5 L 67 9 L 67.5 6 Z" />
 <path fill="rgb(1,2,3)" stroke="rgb(1,2,3)" stroke-width="1" d="M 84.5 6 Q 88.3 5 87 8 L 84.5 6 Z" />
 <path fill="rgb(1,2,3)" stroke="rgb(1,2,3)" stroke-width="1" d="M 104.5 6 L 108 8.5 L 105 9 L 104.5 6 Z" />
 <path fill="rgb(1,2,3)" stroke="rgb(1,2,3)" stroke-width="1" d="M 146.5 6 L 147.5 8 L 146.5 6 Z" />
 <path fill="rgb(1,2,3)" stroke="rgb(1,2,3)" stroke-width="1" d="M 42 7 Q 45 6 44 9 Q 41 10 42 7 Z" />
 <path fill="rgb(1,2,3)" stroke="rgb(1,2,3)" stroke-width="1" d="M 54.5 7 L 55.5 9 Q 52.7 9.7 54.5 7 Z" />
 <path fill="rgb(1,2,3)" stroke="rgb(1,2,3)" stroke-width="1" d="M 97.5 7 Q 99.8 6.3 99 8.5 L 97.5 7 Z" />
 <path fill="rgb(1,2,3)" stroke="rgb(1,2,3)" stroke-width="1" d="M 5.5 8 L 6.5 10 L 5.5 8 Z" />
 <path fill="rgb(1,2,3)" stroke="rgb(1,2,3)" stroke-width="1" d="M 33.5 8 L 32.5 10 L 33.5 8 Z" />
 <path fill="rgb(1,2,3)" stroke="rgb(1,2,3)" stroke-width="1" d="M 89.5 8 L 92 8.5 Q 89.9 11.8 89.5 8 Z" />
 <path fill="rgb(1,2,3)" stroke="rgb(1,2,3)" stroke-width="1" d="M 93.5 8 L 96 8.5 L 93.5 9 L 93.5 8 Z" />
 <path fill="rgb(1,2,3)" stroke="rgb(1,2,3)" stroke-width="1" d="M 131.5 8 L 130.5 10 L 131.5 8 Z" />
 <path fill="rgb(1,2,3)" stroke="rgb(1,2,3)" stroke-width="1" d="M 145.5 8 L 147 10.5 L 146 10.5 L 145.5 8 Z" />
 <path fill="rgb(1,2,3)" stroke="rgb(1,2,3)" stroke-width="1" d="M 85.5 9 L 86.5 11 L 85.5 9 Z" />
 <path fill="rgb(1,2,3)" stroke="rgb(1,2,3)" stroke-width="1" d="M 127.5 9 L 127 10.5 Q 127.7 13.1 125 12 Q 123.9 9.3 126.5 10 L 127.5 9 Z" />
 <path fill="rgb(1,2,3)" stroke="rgb(1,2,3)" stroke-width="1" d="M 150.5 9 L 151 11.5 L 149.5 11 L 148 10.5 L 150.5 9 Z" />
 <path fill="rgb(1,2,3)" stroke="rgb(1,2,3)" stroke-width="1" d="M 36.5 10 Q 39.8 8.9 39 11.5 L 37.5 11 L 35.5 12 L 36.5 10 Z" />
 <path fill="rgb(1,2,3)" stroke="rgb(1,2,3)" stroke-width="1" d="M 92.5 10 L 96 11.5 L 94.5 11 L 90.5 12 L 90.5 11 L 92.5 10 Z" />
 <path fill="rgb(1,2,3)" stroke="rgb(1,2,3)" stroke-width="1" d="M 98.5 10 L 100.5 11 L 102 10.5 Q 100.8 13.3 99.5 11 L 98.5 10 Z" />
 <path fill="rgb(1,2,3)" stroke="rgb(1,2,3)" stroke-width="1" d="M 113.5 18 L 116 19.5 L 114.5 20 L 113.5 18 Z" />
 <path fill="rgb(1,2,3)" stroke="rgb(1,2,3)" stroke-width="1" d="M 77.5 21 L 78.5 23 L 77.5 21 Z" />
 <path fill="rgb(1,2,3)" stroke="rgb(1,2,3)" stroke-width="1" d="M 36.5 27 L 37 28.5 L 35 29.5 L 36.5 27 Z" />
 <path fill="rgb(1,2,3)" stroke="rgb(1,2,3)" stroke-width="1" d="M 38.5 29 L 39 31 L 37 30.5 L 38.5 29 Z" />
 <path fill="rgb(3,1,4)" stroke="rgb(3,1,4)" stroke-width="1" d="M 86.5 9 L 87.5 11 L 86.5 9 Z" />
 <path fill="rgb(3,1,4)" stroke="rgb(3,1,4)" stroke-width="1" d="M 131.5 23 L 132.5 25 L 131.5 23 Z" />
 <path fill="rgb(3,1,4)" stroke="rgb(3,1,4)" stroke-width="1" d="M 77.5 31 L 76.5 33 L 77.5 31 Z" />
 <path fill="rgb(1,3,3)" stroke="rgb(1,3,3)" stroke-width="1" d="M 145.5 30 Q 147.8 29.3 147 31.5 L 145.5 30 Z" />
</svg>